<?xml version="1.0" encoding="UTF-8"?>
<svg id="Layer_2" data-name="Layer 2" xmlns="http://www.w3.org/2000/svg" viewBox="0 0 628.73 571.75">
    <defs>
        <style>
            .cls-1 {
            fill: none;
            stroke: #000;
            stroke-miterlimit: 10;
            }
        </style>
    </defs>
    <g id="Layer_1-2" data-name="Layer 1">
        <path class="cls-1" d="M14.58,376.58c14.56-21.15,39.04-30.39,45.87-32.97,39.79-15.03,56.22,5.77,91.21-3.3,47.78-12.38,39.38-56.91,94.51-82.42,45.48-21.04,82.35-5.15,93.41-27.47,9.93-20.05-16.77-38.99-7.69-58.24,14.57-30.89,92.07-.81,121.98-38.46,20.14-25.35-5.17-51.37,16.48-87.91,16.05-27.09,52.82-51.37,91.21-43.96,32.16,6.22,57.68,33.18,64.84,61.54,9.24,36.62-19.02,48.42-24.18,106.59-4.52,50.98,15.79,57.64,7.65,100-1.29,6.73-14.15,69-62.59,93.41-46.62,23.48-75.8-13.48-129.67,9.89-35.5,15.4-25.45,32.58-72.53,63.74-55.3,36.59-80.74,20.54-116.48,56.04-29.56,29.36-20.86,48.97-48.35,65.93-31.65,19.53-74.92,13.11-103.3-1.1C10.31,524.53-19.23,425.67,14.58,376.58Z"/>
    </g>
</svg>