<?xml version="1.0" encoding="UTF-8"?>
<svg id="Layer_2" data-name="Layer 2" xmlns="http://www.w3.org/2000/svg" viewBox="0 0 621.27 325.26">
  <defs>
    <style>
      .cls-1 {
        fill: none;
        stroke: #201600;
        stroke-miterlimit: 10;
      }
    </style>
  </defs>
  <g id="Layer_1-2" data-name="Layer 1">
    <path class="cls-1" d="M70.69,324.86c1.1-.85,80.42-31.1,80.42-31.1,56.16-17.22,126.3,11.81,126.3,11.81,1.43-50.54,123.23-23.37,123.23-23.37-19.53-38.59,103.62-49.88,103.62-49.88-50.41-21.21,41.08-64.57,41.08-64.57-29.42-38.65,75.2-79.67,75.42-113.8"/>
    <path class="cls-1" d="M47.32,307.32c1.1-.85,80.42-31.1,80.42-31.1,56.16-17.22,126.3,11.81,126.3,11.81,1.43-50.54,123.23-23.37,123.23-23.37-19.53-38.59,103.62-49.88,103.62-49.88-50.41-21.21,41.08-64.57,41.08-64.57-29.42-38.65,75.2-79.67,75.42-113.8"/>
    <path class="cls-1" d="M23.96,288.02c1.1-.85,80.42-31.1,80.42-31.1,56.16-17.22,126.3,11.81,126.3,11.81,1.43-50.54,123.23-23.37,123.23-23.37-19.53-38.59,103.62-49.88,103.62-49.88-50.41-21.21,41.08-64.57,41.08-64.57-29.42-38.65,75.2-79.67,75.42-113.8"/>
    <path class="cls-1" d="M.3,270.91c1.1-.85,80.42-31.1,80.42-31.1,56.16-17.22,126.3,11.81,126.3,11.81,1.43-50.54,123.23-23.37,123.23-23.37-19.53-38.59,103.62-49.88,103.62-49.88-50.41-21.21,41.08-64.57,41.08-64.57C445.54,75.15,550.16,34.13,550.39,0"/>
  </g>
</svg>